<?xml version="1.0" encoding="UTF-8"?>
<svg id="Layer_1" xmlns="http://www.w3.org/2000/svg" xmlns:xlink="http://www.w3.org/1999/xlink" viewBox="0 0 32 32">
  <defs>
    <style>
      .cls-1 {
        fill: url(#linear-gradient-2);
      }

      .cls-2 {
        mask: url(#mask-1);
      }

      .cls-3 {
        fill: url(#linear-gradient-10);
      }

      .cls-4 {
        fill: url(#linear-gradient-5);
        opacity: .26;
      }

      .cls-5 {
        mask: url(#mask);
      }

      .cls-6 {
        fill: none;
      }

      .cls-7 {
        fill: url(#radial-gradient);
      }

      .cls-8 {
        fill: url(#linear-gradient-3);
      }

      .cls-9 {
        fill: url(#linear-gradient-4);
        mix-blend-mode: multiply;
      }

      .cls-10 {
        fill: url(#linear-gradient-8);
      }

      .cls-11 {
        fill: url(#linear-gradient-7);
      }

      .cls-12 {
        fill: url(#linear-gradient-9);
      }

      .cls-13 {
        fill: url(#linear-gradient-6);
      }

      .cls-14 {
        fill: url(#linear-gradient);
      }

      .cls-15 {
        filter: url(#luminosity-noclip);
      }
    </style>
    <linearGradient id="linear-gradient" x1=".5" y1="18.38" x2="13.36" y2="18.38" gradientUnits="userSpaceOnUse">
      <stop offset="0" stop-color="#2b7a0c"/>
      <stop offset="1" stop-color="#d9ed02"/>
    </linearGradient>
    <radialGradient id="radial-gradient" cx="120.63" cy="14.42" fx="120.63" fy="14.42" r="3.39" gradientTransform="translate(-113.42 -.09) scale(.98)" gradientUnits="userSpaceOnUse">
      <stop offset="0" stop-color="#f9e200"/>
      <stop offset="0" stop-color="#ffe600"/>
      <stop offset="1" stop-color="#4f8000"/>
    </radialGradient>
    <linearGradient id="linear-gradient-2" x1="11.52" y1="21.13" x2="8.35" y2="17.57" gradientUnits="userSpaceOnUse">
      <stop offset="0" stop-color="#ffe600"/>
      <stop offset="1" stop-color="#4f8000"/>
    </linearGradient>
    <linearGradient id="linear-gradient-3" x1=".5" y1="18.55" x2="13" y2="18.55" gradientUnits="userSpaceOnUse">
      <stop offset="0" stop-color="#ffe600"/>
      <stop offset="1" stop-color="#4f8000"/>
    </linearGradient>
    <filter id="luminosity-noclip" x="4.15" y="10.6" width="2.09" height="4.14" color-interpolation-filters="sRGB" filterUnits="userSpaceOnUse">
      <feFlood flood-color="#fff" result="bg"/>
      <feBlend in="SourceGraphic" in2="bg"/>
    </filter>
    <filter id="luminosity-noclip-2" x="4.15" y="-8208" width="2.09" height="32766" color-interpolation-filters="sRGB" filterUnits="userSpaceOnUse">
      <feFlood flood-color="#fff" result="bg"/>
      <feBlend in="SourceGraphic" in2="bg"/>
    </filter>
    <mask id="mask-1" x="4.15" y="-8208" width="2.09" height="32766" maskUnits="userSpaceOnUse"/>
    <linearGradient id="linear-gradient-4" x1="6.13" y1="11.78" x2="4.57" y2="13.86" gradientUnits="userSpaceOnUse">
      <stop offset="0" stop-color="#fff"/>
      <stop offset=".92" stop-color="#000"/>
    </linearGradient>
    <mask id="mask" x="4.15" y="10.6" width="2.09" height="4.14" maskUnits="userSpaceOnUse">
      <g class="cls-15">
        <g class="cls-2">
          <polygon class="cls-9" points="6.24 12.75 5.32 10.6 4.15 13.48 5.6 14.74 6.24 12.75"/>
        </g>
      </g>
    </mask>
    <linearGradient id="linear-gradient-5" x1="6.13" y1="11.78" x2="4.57" y2="13.86" gradientUnits="userSpaceOnUse">
      <stop offset="0" stop-color="#000"/>
      <stop offset=".92" stop-color="#db5320"/>
    </linearGradient>
    <linearGradient id="linear-gradient-6" x1="14.98" y1="16.53" x2="20.62" y2="11.77" gradientUnits="userSpaceOnUse">
      <stop offset="0" stop-color="#4f8000"/>
      <stop offset="1" stop-color="#ffe600"/>
    </linearGradient>
    <linearGradient id="linear-gradient-7" x1="12.25" y1="18.01" x2="19.52" y2="13.65" gradientUnits="userSpaceOnUse">
      <stop offset="0" stop-color="#ffe600"/>
      <stop offset=".99" stop-color="#4f8000"/>
    </linearGradient>
    <linearGradient id="linear-gradient-8" x1="20.45" y1="16.05" x2="31.5" y2="16.05" gradientUnits="userSpaceOnUse">
      <stop offset="0" stop-color="#ffe600"/>
      <stop offset="1" stop-color="#4f8000"/>
    </linearGradient>
    <linearGradient id="linear-gradient-9" x1="26.46" y1="16.77" x2="28.05" y2="18.55" gradientUnits="userSpaceOnUse">
      <stop offset="0" stop-color="#000" stop-opacity=".7"/>
      <stop offset="1" stop-color="#000" stop-opacity="0"/>
    </linearGradient>
    <linearGradient id="linear-gradient-10" x1="25.39" y1="14.67" x2="23.45" y2="12.64" xlink:href="#linear-gradient-9"/>
  </defs>
  <path class="cls-14" d="M13.36,15.62s-.13-.02-.36-.02c-.59,0-1.93.09-4.01.89-.46.18-.96.39-1.5.64-1.87.88-4.2,2.25-6.99,4.4,0,0,0,0,0,0,.02-.04,1.67-4.38,6.42-5.82.51-.16,1.06-.28,1.65-.36,1.38-.19,2.97-.13,4.8.28Z"/>
  <path class="cls-7" d="M8.39,14.82c-.56.08-1.1.2-1.63.36-.21-.71-.38-1.52-.52-2.45l-.97,3.03c-.59.28-1.14.62-1.67,1.01-.35.23-.71.52-1.03.87-.08.07-.15.15-.23.23l2.98-7.29h2.07s.28,1.97,1,4.23Z"/>
  <path class="cls-1" d="M11.63,21.52s-2.2.16-3.89-3.7c.49-.29.97-.56,1.44-.79.04-.02.08-.04.12-.06.6,1.74,1.37,3.39,2.33,4.56Z"/>
  <path class="cls-8" d="M13,15.59c-.59,0-1.93.09-4.01.89-.46.18-.96.39-1.5.64-1.87.88-4.2,2.25-6.99,4.4,0,0,0,0,0,0,.03-.05,4.55-6.35,12.5-5.93Z"/>
  <g class="cls-5">
    <polygon class="cls-4" points="6.24 12.75 5.32 10.6 4.15 13.48 5.6 14.74 6.24 12.75"/>
  </g>
  <path class="cls-6" d="M19.15,14.07c.07.97-.69,1.78-1.65,1.79l-.02.05h-.02c-.91-.06-1.65-.8-1.65-1.72s.81-1.73,1.79-1.67c.82.06,1.49.72,1.55,1.54Z"/>
  <path class="cls-6" d="M19.15,14.07c.07.97-.69,1.78-1.65,1.79l-.02.05h-.02c-.91-.06-1.65-.8-1.65-1.72s.81-1.73,1.79-1.67c.82.06,1.49.72,1.55,1.54Z"/>
  <path class="cls-6" d="M19.15,14.07c.07.97-.69,1.78-1.65,1.79l-.02.05h-.02c-.91-.06-1.65-.8-1.65-1.72s.81-1.73,1.79-1.67c.82.06,1.49.72,1.55,1.54Z"/>
  <g>
    <path class="cls-13" d="M20.99,13.95c0,1.88-1.55,3.41-3.45,3.41-.63,0-1.22-.17-1.71-.46v-2.95c-.02.94.74,1.7,1.69,1.7l.02.06h.02c.15,0,1.11-.01,1.82-.8.04-.04.74-.85.59-1.96-.15-1.1-1.08-1.91-1.85-2.16-.23-.08-.83-.22-.82-.27,0-.02.09-.03.14-.03.05,0,.09,0,.1,0,.24,0,.36.02.36.02.08,0,.22.02.39.06,0,0,.43.09.9.36.18.1.36.23.36.23.01,0,.02.02.03.02.27.2.57.5.77.8.06.08.64.95.64,1.98Z"/>
    <path class="cls-11" d="M20.16,13.11c0,1.42-1.16,2.58-2.59,2.59.99,0,1.79-.85,1.71-1.86-.06-.85-.75-1.53-1.6-1.59-1.02-.07-1.86.73-1.9,1.72v5.82c.04.95-.74,1.73-1.71,1.73v-7.54c.01-1.9,1.56-3.44,3.47-3.5l.02.06h.02c1.43,0,2.59,1.16,2.59,2.58Z"/>
  </g>
  <g>
    <path class="cls-10" d="M29.07,18.16l-.86-1.19-.78-1.08-.02-.02,3.81-5.28c-1.71,0-3.32.84-4.31,2.24l-.91,1.29h0s-.8-1.13-.8-1.13l-.13-.19c-.11-.16-.24-.32-.37-.46-.11-.12-.22-.23-.33-.34-.96-.9-2.24-1.41-3.59-1.41h-.14l3.82,5.37-4.03,5.57h.11c1.74,0,3.37-.86,4.35-2.29l1.03-1.51,1,1.44.07.1c.14.2.29.39.45.56.02.02.03.04.05.05.99,1.04,2.36,1.65,3.82,1.65h.17l-2.43-3.36Z"/>
    <path class="cls-12" d="M28.94,18.08h0s-.85,1.02-.85,1.02l-.62.75c-.16-.18-.31-.36-.45-.56l-.07-.1c-.56-1.08-.38-2.4.48-3.3,0,0,.01.01.02.02l.78,1.08.73,1.1Z"/>
    <path class="cls-3" d="M26.02,14.13c-1.12.52-2.43.26-3.27-.61l-.07-.09c-.14-.19-.27-.4-.39-.61l.91-.35,1.19-.46c.12.11.23.22.33.34l.5.65.02.03.77,1.08s0,0,0,.01c0,0,0,0,0,0Z"/>
  </g>
</svg>