<?xml version="1.0" encoding="UTF-8"?>
<svg id="Layer_1" xmlns="https://www.w3.org/2000/svg" xmlns:xlink="https://www.w3.org/1999/xlink" viewBox="0 0 48 48">
  <defs>
    <style>
      .cls-1 {
        fill: url(#linear-gradient-2);
      }

      .cls-2 {
        mask: url(#mask-1);
      }

      .cls-3 {
        fill: url(#linear-gradient-10);
      }

      .cls-4 {
        fill: url(#linear-gradient-5);
        opacity: .26;
      }

      .cls-5 {
        mask: url(#mask);
      }

      .cls-6 {
        fill: none;
      }

      .cls-7 {
        fill: url(#radial-gradient);
      }

      .cls-8 {
        fill: url(#linear-gradient-3);
      }

      .cls-9 {
        fill: url(#linear-gradient-4);
        mix-blend-mode: multiply;
      }

      .cls-10 {
        fill: url(#linear-gradient-8);
      }

      .cls-11 {
        fill: url(#linear-gradient-7);
      }

      .cls-12 {
        fill: url(#linear-gradient-9);
      }

      .cls-13 {
        fill: url(#linear-gradient-6);
      }

      .cls-14 {
        fill: url(#linear-gradient);
      }

      .cls-15 {
        filter: url(#luminosity-noclip);
      }
    </style>
    <linearGradient id="linear-gradient" x1=".5" y1="27.61" x2="19.99" y2="27.61" gradientUnits="userSpaceOnUse">
      <stop offset="0" stop-color="#2b7a0c"/>
      <stop offset="1" stop-color="#d9ed02"/>
    </linearGradient>
    <radialGradient id="radial-gradient" cx="105.23" cy="30.33" fx="105.23" fy="30.33" r="5.13" gradientTransform="translate(-95.74 -8.82) scale(.98)" gradientUnits="userSpaceOnUse">
      <stop offset="0" stop-color="#f9e200"/>
      <stop offset="0" stop-color="#ffe600"/>
      <stop offset="1" stop-color="#4f8000"/>
    </radialGradient>
    <linearGradient id="linear-gradient-2" x1="17.21" y1="31.78" x2="12.4" y2="26.38" gradientUnits="userSpaceOnUse">
      <stop offset="0" stop-color="#ffe600"/>
      <stop offset="1" stop-color="#4f8000"/>
    </linearGradient>
    <linearGradient id="linear-gradient-3" x1=".5" y1="27.86" x2="19.45" y2="27.86" gradientUnits="userSpaceOnUse">
      <stop offset="0" stop-color="#ffe600"/>
      <stop offset="1" stop-color="#4f8000"/>
    </linearGradient>
    <filter id="luminosity-noclip" x="6.03" y="15.82" width="3.18" height="6.27" color-interpolation-filters="sRGB" filterUnits="userSpaceOnUse">
      <feFlood flood-color="#fff" result="bg"/>
      <feBlend in="SourceGraphic" in2="bg"/>
    </filter>
    <filter id="luminosity-noclip-2" x="6.03" y="-6876.44" width="3.18" height="32766" color-interpolation-filters="sRGB" filterUnits="userSpaceOnUse">
      <feFlood flood-color="#fff" result="bg"/>
      <feBlend in="SourceGraphic" in2="bg"/>
    </filter>
    <mask id="mask-1" x="6.03" y="-6876.44" width="3.18" height="32766" maskUnits="userSpaceOnUse"/>
    <linearGradient id="linear-gradient-4" x1="9.03" y1="17.6" x2="6.68" y2="20.76" gradientUnits="userSpaceOnUse">
      <stop offset="0" stop-color="#fff"/>
      <stop offset=".92" stop-color="#000"/>
    </linearGradient>
    <mask id="mask" x="6.03" y="15.82" width="3.18" height="6.27" maskUnits="userSpaceOnUse">
      <g class="cls-15">
        <g class="cls-2">
          <polygon class="cls-9" points="9.2 19.07 7.81 15.82 6.03 20.17 8.24 22.09 9.2 19.07"/>
        </g>
      </g>
    </mask>
    <linearGradient id="linear-gradient-5" x1="9.03" y1="17.6" x2="6.68" y2="20.76" gradientUnits="userSpaceOnUse">
      <stop offset="0" stop-color="#000"/>
      <stop offset=".92" stop-color="#db5320"/>
    </linearGradient>
    <linearGradient id="linear-gradient-6" x1="22.45" y1="24.81" x2="31" y2="17.59" gradientUnits="userSpaceOnUse">
      <stop offset="0" stop-color="#4f8000"/>
      <stop offset="1" stop-color="#ffe600"/>
    </linearGradient>
    <linearGradient id="linear-gradient-7" x1="18.31" y1="27.05" x2="29.33" y2="20.44" gradientUnits="userSpaceOnUse">
      <stop offset="0" stop-color="#ffe600"/>
      <stop offset=".99" stop-color="#4f8000"/>
    </linearGradient>
    <linearGradient id="linear-gradient-8" x1="30.75" y1="24.08" x2="47.5" y2="24.08" gradientUnits="userSpaceOnUse">
      <stop offset="0" stop-color="#ffe600"/>
      <stop offset="1" stop-color="#4f8000"/>
    </linearGradient>
    <linearGradient id="linear-gradient-9" x1="39.86" y1="25.17" x2="42.28" y2="27.87" gradientUnits="userSpaceOnUse">
      <stop offset="0" stop-color="#000" stop-opacity=".7"/>
      <stop offset="1" stop-color="#000" stop-opacity="0"/>
    </linearGradient>
    <linearGradient id="linear-gradient-10" x1="38.24" y1="21.98" x2="35.3" y2="18.9" xlink:href="#linear-gradient-9"/>
  </defs>
  <path class="cls-14" d="M19.99,23.42s-.2-.03-.54-.04c-.9-.01-2.92.14-6.07,1.35-.7.27-1.46.59-2.27.97-2.84,1.33-6.37,3.42-10.6,6.67,0,0,0,0,0,0,.02-.06,2.54-6.64,9.73-8.83.78-.24,1.61-.42,2.49-.54,2.09-.28,4.5-.2,7.27.42Z"/>
  <path class="cls-7" d="M12.47,22.21c-.85.12-1.67.31-2.47.55-.31-1.08-.58-2.31-.79-3.71l-1.47,4.6c-.89.43-1.73.94-2.53,1.54-.53.34-1.08.78-1.57,1.33-.12.11-.23.23-.35.35l4.52-11.06h3.13s.42,2.98,1.52,6.42Z"/>
  <path class="cls-1" d="M17.37,32.37s-3.34.24-5.91-5.61c.74-.45,1.47-.85,2.19-1.2.06-.03.12-.06.18-.09.91,2.64,2.08,5.14,3.54,6.91Z"/>
  <path class="cls-8" d="M19.45,23.38c-.9-.01-2.92.14-6.07,1.35-.7.27-1.46.59-2.27.97-2.84,1.33-6.37,3.42-10.6,6.67,0,0,0,0,0,0,.05-.07,6.9-9.63,18.95-8.99Z"/>
  <g class="cls-5">
    <polygon class="cls-4" points="9.2 19.07 7.81 15.82 6.03 20.17 8.24 22.09 9.2 19.07"/>
  </g>
  <path class="cls-6" d="M28.78,21.08c.11,1.47-1.05,2.71-2.5,2.71l-.02.08h-.02c-1.39-.09-2.51-1.22-2.51-2.61s1.23-2.63,2.71-2.53c1.25.09,2.26,1.09,2.35,2.34Z"/>
  <path class="cls-6" d="M28.78,21.08c.11,1.47-1.05,2.71-2.5,2.71l-.02.08h-.02c-1.39-.09-2.51-1.22-2.51-2.61s1.23-2.63,2.71-2.53c1.25.09,2.26,1.09,2.35,2.34Z"/>
  <path class="cls-6" d="M28.78,21.08c.11,1.47-1.05,2.71-2.5,2.71l-.02.08h-.02c-1.39-.09-2.51-1.22-2.51-2.61s1.23-2.63,2.71-2.53c1.25.09,2.26,1.09,2.35,2.34Z"/>
  <g>
    <path class="cls-13" d="M31.57,20.88c0,2.86-2.34,5.17-5.24,5.17-.95,0-1.85-.25-2.59-.69v-4.48c-.03,1.42,1.13,2.57,2.56,2.58l.03.09h.03c.23,0,1.69-.02,2.76-1.21.05-.06,1.13-1.3.89-2.97-.23-1.67-1.64-2.89-2.8-3.27-.35-.12-1.25-.34-1.24-.41,0-.03.14-.04.21-.05.07,0,.13,0,.15,0,.36,0,.55.03.55.03.12.01.34.04.58.09,0,0,.65.14,1.37.54.28.16.54.34.54.34.02.01.04.03.05.03.41.3.86.76,1.17,1.21.09.13.98,1.44.98,3.01Z"/>
    <path class="cls-11" d="M30.31,19.63c0,2.16-1.75,3.91-3.92,3.93,1.51-.01,2.71-1.29,2.6-2.82-.1-1.29-1.14-2.32-2.43-2.41-1.54-.11-2.82,1.1-2.88,2.61v8.82c.06,1.45-1.12,2.62-2.6,2.62v-11.44c.02-2.88,2.36-5.22,5.26-5.31l.03.09h.03c2.17,0,3.92,1.75,3.92,3.91Z"/>
  </g>
  <g>
    <path class="cls-10" d="M43.82,27.27l-1.31-1.81-1.18-1.63-.02-.03,5.78-8.01c-2.6,0-5.03,1.27-6.53,3.39l-1.37,1.96h0s-1.21-1.71-1.21-1.71l-.2-.29c-.17-.25-.36-.48-.56-.7-.16-.18-.33-.35-.51-.52-1.46-1.36-3.4-2.14-5.44-2.14h-.22l5.8,8.14-6.1,8.44h.17c2.64,0,5.1-1.3,6.59-3.48l1.56-2.28,1.52,2.19.1.15c.21.3.44.59.68.85.03.03.05.06.08.08,1.49,1.58,3.59,2.5,5.8,2.5h.26l-3.68-5.1Z"/>
    <path class="cls-12" d="M43.62,27.16h-.01s-1.29,1.54-1.29,1.54l-.94,1.13c-.24-.27-.47-.55-.68-.85l-.1-.15c-.84-1.63-.57-3.64.72-5,0,0,.02.02.03.03l1.18,1.63,1.1,1.66Z"/>
    <path class="cls-3" d="M39.2,21.17c-1.7.79-3.69.4-4.96-.92l-.11-.14c-.22-.3-.41-.6-.59-.92l1.37-.53,1.8-.7c.18.16.34.34.51.52l.76.99.03.04,1.17,1.64s0,.01.01.02c0,0,0,0,0,.01Z"/>
  </g>
</svg>